HIERARCHY
ROOT Hips
{
	OFFSET 0.000000 0.000000 0.000000
	CHANNELS 6 Xposition Yposition Zposition Xrotation Yrotation Zrotation
	JOINT LeftUpLeg_virtual
	{
		OFFSET 0.000000 0.000000 0.000000
		CHANNELS 3 Xrotation Yrotation Zrotation
		JOINT LeftUpLeg
		{
			OFFSET 11.394100 -6.187798 -0.413800
			CHANNELS 3 Xrotation Yrotation Zrotation
			JOINT LeftLeg
			{
				OFFSET 0.430247 -32.302673 3.732800
				CHANNELS 3 Xrotation Yrotation Zrotation
				JOINT LeftFoot
				{
					OFFSET -0.430247 -48.264931 -6.423300
					CHANNELS 3 Xrotation Yrotation Zrotation
					JOINT LeftToeBase
					{
						OFFSET 4.230900 -16.068199 23.438400
						CHANNELS 3 Xrotation Yrotation Zrotation
						JOINT LeftToe_End
						{
							OFFSET 4.510700 0.695400 19.974600
							CHANNELS 3 Xrotation Yrotation Zrotation
							End Site
							{
								OFFSET 0 0 0
							}
						}
					}
				}
			}
		}
	}
	JOINT RightUpLeg_virtual
	{
		OFFSET 0.000000 0.000000 0.000000
		CHANNELS 3 Xrotation Yrotation Zrotation
		JOINT RightUpLeg
		{
			OFFSET -11.333700 -6.187798 -0.413800
			CHANNELS 3 Xrotation Yrotation Zrotation
			JOINT RightLeg
			{
				OFFSET -0.430392 -32.302628 3.733000
				CHANNELS 3 Xrotation Yrotation Zrotation
				JOINT RightFoot
				{
					OFFSET 0.430392 -48.264973 -6.423500
					CHANNELS 3 Xrotation Yrotation Zrotation
					JOINT RightToeBase
					{
						OFFSET -4.230900 -16.068199 23.438400
						CHANNELS 3 Xrotation Yrotation Zrotation
						JOINT RightToe_End
						{
							OFFSET -4.510700 0.695400 19.974600
							CHANNELS 3 Xrotation Yrotation Zrotation
							End Site
							{
								OFFSET 0 0 0
							}
						}
					}
				}
			}
		}
	}
	JOINT Spine_virtual
	{
		OFFSET 0.000000 0.000000 0.000000
		CHANNELS 3 Xrotation Yrotation Zrotation
		JOINT Spine
		{
			OFFSET -0.002400 12.777504 0.315300
			CHANNELS 3 Xrotation Yrotation Zrotation
			JOINT Spine1
			{
				OFFSET -0.002067 5.816869 0.032633
				CHANNELS 3 Xrotation Yrotation Zrotation
				JOINT Spine1_split
				{
					OFFSET -0.002067 5.816869 0.032633
					CHANNELS 3 Xrotation Yrotation Zrotation
					JOINT Spine2
					{
						OFFSET -0.002067 5.816869 0.032633
						CHANNELS 3 Xrotation Yrotation Zrotation
						JOINT Neck_virtual
						{
							OFFSET 0.000000 0.000000 0.000000
							CHANNELS 3 Xrotation Yrotation Zrotation
							JOINT Neck
							{
								OFFSET -0.003700 21.199493 -0.826900
								CHANNELS 3 Xrotation Yrotation Zrotation
								JOINT Head
								{
									OFFSET 0.000000 20.442200 4.834800
									CHANNELS 3 Xrotation Yrotation Zrotation
									JOINT HeadTop_End
									{
										OFFSET 0.000000 34.668396 4.968400
										CHANNELS 3 Xrotation Yrotation Zrotation
										End Site
										{
											OFFSET 0 0 0
										}
									}
								}
							}
						}
						JOINT LeftShoulder_virtual
						{
							OFFSET 0.000000 0.000000 0.000000
							CHANNELS 3 Xrotation Yrotation Zrotation
							JOINT LeftShoulder
							{
								OFFSET 3.288150 8.794197 -1.372250
								CHANNELS 3 Xrotation Yrotation Zrotation
								JOINT LeftShoulder_split
								{
									OFFSET 3.288150 8.794197 -1.372250
									CHANNELS 3 Xrotation Yrotation Zrotation
									JOINT LeftArm
									{
										OFFSET 11.953299 -2.279007 -0.146200
										CHANNELS 3 Xrotation Yrotation Zrotation
										JOINT LeftForeArm
										{
											OFFSET 18.448900 0.000000 0.000000
											CHANNELS 3 Xrotation Yrotation Zrotation
											JOINT LeftHand
											{
												OFFSET 29.527798 0.000000 0.000000
												CHANNELS 3 Xrotation Yrotation Zrotation
												End Site
												{
													OFFSET 0 0 0
												}
											}
										}
									}
								}
							}
						}
						JOINT RightShoulder_virtual
						{
							OFFSET 0.000000 0.000000 0.000000
							CHANNELS 3 Xrotation Yrotation Zrotation
							JOINT RightShoulder
							{
								OFFSET -3.249400 8.794197 -1.372250
								CHANNELS 3 Xrotation Yrotation Zrotation
								JOINT RightShoulder_split
								{
									OFFSET -3.249400 8.794197 -1.372250
									CHANNELS 3 Xrotation Yrotation Zrotation
									JOINT RightArm
									{
										OFFSET -11.953299 -2.279007 -0.146200
										CHANNELS 3 Xrotation Yrotation Zrotation
										JOINT RightForeArm
										{
											OFFSET -18.448900 0.000000 0.000000
											CHANNELS 3 Xrotation Yrotation Zrotation
											JOINT RightHand
											{
												OFFSET -29.527802 0.000000 0.000000
												CHANNELS 3 Xrotation Yrotation Zrotation
												End Site
												{
													OFFSET 0 0 0
												}
											}
										}
									}
								}
							}
						}
					}
				}
			}
		}
	}
}
MOTION
Frames: 10
Frame Time: 0.03333333
-53.271214 32.716965 -8.624996 0.000000 0.000000 0.000000 -71.244303 16.107309 100.519921 -14.426985 31.551164 -0.995341 46.707665 4.603613 -16.930849 -8.356207 -7.616738 27.094517 -0.021892 -6.747846 7.414242 0.000000 0.000000 0.000000 -69.025441 10.284631 97.458207 -59.064662 -12.835905 -36.914724 130.167587 -0.045496 13.102838 6.992898 1.044181 1.947835 7.188718 3.968903 -86.048834 0.000000 0.000000 0.000000 -73.324608 15.391802 100.416676 27.700040 -4.097005 -11.191399 3.593324 -2.713926 -3.922547 0.016527 2.920671 -0.469395 0.000000 0.000000 0.000000 5.724617 -1.798509 -0.815636 10.747826 -35.965010 7.979746 -20.072490 -11.694566 -26.513316 0.000000 0.000000 0.000000 2.515195 0.107130 -6.352518 -3.853259 16.412104 -5.783408 1.395670 -9.481438 1.492258 -47.940845 -41.775838 -29.718225 34.785921 39.253497 -2.484785 0.000000 0.000000 0.000000 10.928916 -0.373252 -4.322382 3.613497 -13.681150 -19.804815 -22.545377 -9.189942 9.724979 -32.119047 34.873621 17.719181 -2.393402 6.924172 10.510124 0.000000 0.000000 0.000000 
-57.066166 28.238548 -7.971588 0.000000 0.000000 0.000000 -72.066644 8.250772 102.219272 -14.536458 23.614172 -0.450887 48.235486 7.925425 -16.791043 -8.113571 -0.865684 26.777215 1.716183 -6.165673 1.566510 0.000000 0.000000 0.000000 -69.005169 2.723829 100.430903 -57.190916 -10.196620 -36.664633 129.498474 -3.683847 19.915107 0.211365 -1.716212 -1.982810 8.411123 3.490672 -84.330140 0.000000 0.000000 0.000000 -72.629459 8.018291 101.310051 28.301362 -6.521769 -11.274201 3.389650 -3.749316 -2.184649 0.058021 3.289318 -0.462400 0.000000 0.000000 0.000000 5.442232 -2.922635 0.579691 7.277340 -36.407217 8.660852 -15.687445 -11.617224 -26.243195 0.000000 0.000000 0.000000 2.262641 -1.020856 -4.644334 -3.931941 16.322778 -7.123839 1.838825 -8.280941 0.169449 -60.571975 -33.929935 -38.678074 35.935145 36.956432 -1.972113 0.000000 0.000000 0.000000 11.536434 -1.203587 -2.908179 2.663021 -13.371905 -17.103501 -26.028572 -9.290463 8.786368 -29.353739 32.066782 18.928787 -1.894001 5.710378 9.193984 0.000000 0.000000 0.000000 
-60.753616 25.867653 -7.838783 0.000000 0.000000 0.000000 -73.045663 2.175022 102.856994 -17.105292 16.186604 1.358046 49.788080 10.840620 -16.814959 -5.213842 6.983140 24.340351 3.239220 -5.646082 -3.047861 0.000000 0.000000 0.000000 -69.353126 -3.476168 102.341171 -51.323752 -7.985479 -35.695125 124.717451 -8.472956 26.163639 -3.167894 -4.508190 -3.263777 9.011450 3.297446 -81.107069 0.000000 0.000000 0.000000 -71.864334 1.977246 101.565084 28.888627 -8.006618 -10.815975 2.314952 -4.871283 -0.555198 0.098898 3.198789 -0.437041 0.000000 0.000000 0.000000 4.789906 -4.006568 1.855852 3.095329 -36.338532 9.678337 -10.937365 -8.401823 -23.526686 0.000000 0.000000 0.000000 1.153698 -1.991063 -3.013200 -4.178922 16.584218 -7.303637 2.223809 -6.466040 -2.061911 -70.661872 -20.126126 -42.951385 36.811960 33.105230 -0.509846 0.000000 0.000000 0.000000 11.026811 -2.155718 -1.762761 1.845128 -12.644807 -15.447965 -28.844224 -9.588006 7.505853 -29.240658 30.460707 23.234558 -1.403800 5.242098 7.545900 0.000000 0.000000 0.000000 
-64.268410 25.975872 -7.728359 0.000000 0.000000 0.000000 -74.060117 -1.980837 102.535216 -20.870999 9.844502 3.616234 49.559101 12.450827 -16.336948 1.711539 13.955109 18.923481 3.695599 -5.289272 -5.408415 0.000000 0.000000 0.000000 -70.554447 -7.816973 102.753099 -43.187344 -5.533392 -34.538655 114.853633 -14.527985 30.504888 -1.163032 -6.800889 -0.344381 8.479338 3.772033 -77.167867 0.000000 0.000000 0.000000 -71.290496 -2.417838 101.310154 29.541798 -8.358179 -9.781765 0.691549 -6.158760 0.632997 0.148363 2.732865 -0.445606 0.000000 0.000000 0.000000 4.026420 -5.072085 2.792673 -1.452750 -35.628487 11.216630 -6.034758 -1.549489 -19.687961 0.000000 0.000000 0.000000 -0.525421 -2.947861 -1.907321 -4.601991 16.845304 -6.090168 2.614659 -4.795152 -4.155513 -77.456715 -5.370742 -42.231616 37.544730 28.642974 1.606840 0.000000 0.000000 0.000000 9.621471 -3.326453 -1.186598 1.194316 -11.745356 -15.005029 -29.566755 -11.417033 6.164240 -30.734284 29.182741 28.886793 -1.010504 4.311429 5.746718 0.000000 0.000000 0.000000 
-67.612274 28.584412 -8.161346 0.000000 0.000000 0.000000 -75.123509 -4.713626 101.284411 -24.695191 5.443311 6.154762 46.853889 12.474048 -14.902440 11.507475 17.845910 11.974058 3.336627 -5.261730 -5.155137 0.000000 0.000000 0.000000 -72.728264 -10.292952 101.555808 -34.817620 -2.774218 -33.718318 99.193014 -21.595620 31.427941 5.720001 -7.684467 6.438107 6.720477 4.890251 -73.330352 0.000000 0.000000 0.000000 -71.052819 -5.116452 100.917725 30.260771 -7.603033 -8.126766 -1.068200 -7.592894 1.161502 0.034861 2.100425 -0.343819 0.000000 0.000000 0.000000 3.364820 -6.246651 3.252048 -5.809977 -34.276550 13.247667 -1.187633 8.024468 -16.163277 0.000000 0.000000 0.000000 -2.331435 -4.034402 -1.603875 -5.123975 17.092977 -3.627286 2.313996 -3.880952 -5.737053 -81.265721 4.991079 -39.390070 38.347216 24.714479 4.141307 0.000000 0.000000 0.000000 7.730654 -4.718704 -1.368470 0.655126 -11.062403 -16.001812 -28.193735 -14.946477 5.234535 -32.374106 27.396925 33.997584 -0.752870 2.996985 4.024191 0.000000 0.000000 0.000000 
-70.881378 32.931641 -8.572586 0.000000 0.000000 0.000000 -76.368994 -5.982149 99.503760 -27.411028 3.325111 8.891686 41.144086 11.000147 -12.668392 20.554790 17.783472 6.009514 2.778951 -5.629061 -2.418655 0.000000 0.000000 0.000000 -75.623486 -11.088047 99.079018 -27.370977 -0.132106 -33.336398 78.054063 -28.298968 27.767625 14.540913 -6.846785 14.810096 4.305366 6.034483 -69.915667 0.000000 0.000000 0.000000 -70.806905 -6.653988 100.038359 30.872107 -5.973546 -6.016479 -2.667008 -9.116533 1.007590 -0.118067 1.505644 -0.264627 0.000000 0.000000 0.000000 2.787045 -7.624089 3.220960 -9.874851 -32.347632 15.402760 3.715649 18.496945 -13.961748 0.000000 0.000000 0.000000 -3.795658 -5.317677 -2.086610 -5.659651 17.305225 -0.197437 1.372845 -3.625235 -7.078085 -81.833787 9.280876 -36.670258 39.137076 22.489704 6.814491 0.000000 0.000000 0.000000 5.869972 -6.329802 -2.257435 0.175440 -10.823323 -18.235466 -25.644867 -20.272638 3.859967 -33.353142 25.197767 37.397499 -0.610311 1.956800 2.538951 0.000000 0.000000 0.000000 
-74.105728 37.715755 -8.570797 0.000000 0.000000 0.000000 -77.814221 -6.203988 97.591389 -28.599061 4.128010 12.041553 32.387203 8.287713 -10.291630 26.023719 14.611550 3.371195 1.177110 -6.491875 2.602094 0.000000 0.000000 0.000000 -78.444081 -11.379817 95.848454 -21.555613 1.780642 -33.333946 56.793539 -32.559191 21.383239 22.065310 -5.715804 21.700466 2.961074 5.935885 -66.968195 0.000000 0.000000 0.000000 -70.980876 -7.438990 98.646858 31.202288 -3.821657 -3.832554 -3.892564 -10.651203 0.311295 -0.306926 1.152851 -0.210887 0.000000 0.000000 0.000000 2.329304 -9.204941 2.866323 -13.063366 -30.142014 17.428532 8.572170 27.986470 -13.296919 0.000000 0.000000 0.000000 -4.769227 -6.746622 -3.096876 -6.084564 17.493557 3.545470 -0.002935 -4.105774 -8.360044 -79.823854 8.598981 -35.203300 39.715419 22.157397 9.431220 0.000000 0.000000 0.000000 4.549778 -8.090815 -3.561660 -0.330925 -11.091459 -21.380319 -22.028887 -25.495513 2.699323 -33.960711 22.452809 38.919405 -0.535656 1.911742 1.320301 0.000000 0.000000 0.000000 
-77.320213 41.941311 -8.591492 0.000000 0.000000 0.000000 -79.074152 -6.011072 95.305502 -29.059484 7.539519 15.913241 22.532669 3.956053 -8.684562 28.789616 9.335640 3.257532 -1.901562 -7.970575 9.400338 0.000000 0.000000 0.000000 -80.653592 -11.904896 92.312472 -17.464500 2.196536 -33.556265 40.706541 -34.537791 15.536993 26.731984 -5.876755 25.960822 3.993762 4.087601 -64.583223 0.000000 0.000000 0.000000 -71.313370 -7.356552 96.422293 31.183102 -1.545476 -1.961532 -4.585393 -12.062775 -0.553034 -0.409797 1.099216 -0.179543 0.000000 0.000000 0.000000 1.863949 -10.930067 2.435394 -15.230118 -28.079570 18.988368 13.184663 34.921907 -13.797937 0.000000 0.000000 0.000000 -5.296649 -8.157373 -4.147679 -6.393795 17.922647 6.914868 -1.686183 -4.618357 -9.385709 -76.073049 5.517201 -34.795873 39.984228 23.257955 11.981866 0.000000 0.000000 0.000000 3.999986 -9.812805 -4.819326 -0.808294 -11.650549 -25.001583 -19.109823 -28.468676 1.674713 -34.634209 19.058260 38.890004 -0.495537 3.164736 0.357688 0.000000 0.000000 0.000000 
-80.349136 44.786541 -8.285408 0.000000 0.000000 0.000000 -79.851865 -5.695096 92.933733 -29.420517 12.769518 20.368492 14.338678 -1.429433 -8.660172 30.628139 3.257396 4.676578 -5.187006 -9.951669 16.583727 0.000000 0.000000 0.000000 -81.912471 -12.393528 88.696782 -14.760037 0.977880 -33.800540 32.369407 -35.438143 12.286218 28.565128 -7.533706 27.994403 7.372286 0.933566 -62.729803 0.000000 0.000000 0.000000 -71.517545 -7.023054 93.226078 30.824452 0.536785 -0.763080 -4.699751 -13.272306 -1.162606 -0.311616 1.322566 -0.258665 0.000000 0.000000 0.000000 1.357985 -12.532461 2.192871 -16.292368 -26.501542 19.936538 17.055985 38.892139 -14.665504 0.000000 0.000000 0.000000 -5.535034 -9.403104 -4.797401 -6.658135 18.490961 9.418702 -2.999865 -5.445842 -10.204341 -71.567890 3.202861 -34.352494 39.992233 24.695896 14.500632 0.000000 0.000000 0.000000 4.229955 -11.317557 -5.587062 -1.020812 -12.295827 -28.474557 -17.940832 -29.415391 0.103787 -36.231913 14.736319 37.889074 -0.580754 5.183046 -0.394535 0.000000 0.000000 0.000000 
-83.007576 46.207588 -8.430164 0.000000 0.000000 0.000000 -79.909375 -5.275485 90.574981 -30.372021 18.932446 25.153567 9.003977 -6.150663 -9.893955 32.210568 -1.706642 7.596812 -6.556072 -11.646092 22.565314 0.000000 0.000000 0.000000 -82.437836 -12.639310 85.384830 -13.113799 -2.121697 -33.999019 30.346589 -36.068549 11.412554 28.493772 -9.690512 28.618462 11.897708 -2.447117 -61.552148 0.000000 0.000000 0.000000 -71.637217 -6.535847 89.494002 30.236984 2.278384 -0.386736 -4.346658 -14.228980 -1.250695 -0.187511 1.772343 -0.410302 0.000000 0.000000 0.000000 0.948861 -13.778775 2.328880 -16.198121 -25.722798 20.197867 19.714706 39.822049 -15.310004 0.000000 0.000000 0.000000 -5.646550 -10.322027 -4.799246 -6.880035 19.000075 10.790978 -3.564242 -6.462438 -10.386421 -67.049406 3.460613 -33.676938 40.032012 25.640508 16.960451 0.000000 0.000000 0.000000 4.977590 -12.417205 -5.624304 -0.846367 -12.781087 -31.648443 -18.478392 -28.249775 -1.282801 -38.949365 8.940975 35.694254 -0.902187 7.512864 -0.942390 0.000000 0.000000 0.000000 
